<?xml version="1.0" encoding="UTF-8"?>
<svg version="1.1" xmlns="http://www.w3.org/2000/svg" width="571" height="237">
<path d="M0 0 C188.43 0 376.86 0 571 0 C571 78.21 571 156.42 571 237 C382.57 237 194.14 237 0 237 C0 158.79 0 80.58 0 0 Z " fill="#172120" transform="translate(0,0)"/>
<path d="M0 0 C23 0 23 0 31 4 C34.67584185 8.4328469 34.4869421 12.57009591 34.37109375 18.1171875 C33.85655555 22.11433691 32.5228189 23.92531446 30 27 C30 27.99 30 28.98 30 30 C31.96185416 31.71140469 33.96302383 33.37873325 36 35 C38.15575311 39.31150622 37.34228334 45.11744164 36.5 49.75 C33.56342974 54.15485539 28.98838911 57.33720363 24 59 C16.08 59 8.16 59 0 59 C0 39.53 0 20.06 0 0 Z " fill="#F7F9F9" transform="translate(129,64)"/>
<path d="M0 0 C4.29395609 3.68053379 8.28078402 7.16356513 12.21484375 11.15234375 C12.67427872 11.61556534 13.13371368 12.07878693 13.60707092 12.55604553 C15.53583973 14.50086166 17.45848735 16.4516848 19.3815918 18.40209961 C24.55423866 23.64154701 29.73778622 28.81046754 35.34594727 33.58911133 C37.72957005 35.62231518 39.9160108 37.65551215 42 40 C42 40.99 42 41.98 42 43 C42.66 43 43.32 43 44 43 C44 29.8 44 16.6 44 3 C46.64 3 49.28 3 52 3 C52 22.8 52 42.6 52 63 C48.42796392 61.21398196 46.56649035 59.93313183 44 57 C44 56.34 44 55.68 44 55 C43.40172394 54.72736832 42.80344788 54.45473663 42.18704224 54.17384338 C40.05481072 53.02941836 38.69433827 51.93159396 37.00732422 50.21850586 C36.1765889 49.38270241 36.1765889 49.38270241 35.32907104 48.53001404 C34.74352448 47.93100784 34.15797791 47.33200165 33.5546875 46.71484375 C32.94360138 46.09855606 32.33251526 45.48226837 31.70291138 44.8473053 C29.75545618 42.88206676 27.81483091 40.91026236 25.875 38.9375 C23.92716399 36.96205725 21.97789254 34.98808649 20.02566528 33.01698303 C18.81202071 31.79106939 17.60105915 30.56249271 16.39303589 29.33103943 C13.4854956 26.28867973 13.4854956 26.28867973 10 24 C10 36.54 10 49.08 10 62 C6.7 62 3.4 62 0 62 C0 41.54 0 21.08 0 0 Z " fill="#F0F4F4" transform="translate(400,61)"/>
<path d="M0 0 C13.2 0 26.4 0 40 0 C40 2.97 40 5.94 40 9 C30.1 9 20.2 9 10 9 C10 14.61 10 20.22 10 26 C18.58 26 27.16 26 36 26 C36 28.97 36 31.94 36 35 C23.625 35.495 23.625 35.495 11 36 C10.67 40.95 10.34 45.9 10 51 C20.23 51 30.46 51 41 51 C41 53.97 41 56.94 41 60 C27.47 60 13.94 60 0 60 C0 40.2 0 20.4 0 0 Z " fill="#E4EBEC" transform="translate(281,63)"/>
<path d="M0 0 C3.3 0 6.6 0 10 0 C10.0093457 1.27117676 10.01869141 2.54235352 10.02832031 3.85205078 C10.0682865 8.58238362 10.13406414 13.31207062 10.20751953 18.04199219 C10.23569066 20.08650395 10.25692435 22.13112384 10.27099609 24.17578125 C10.29247887 27.12035322 10.3391569 30.06363041 10.390625 33.0078125 C10.39185364 33.9174173 10.39308228 34.82702209 10.39434814 35.76419067 C10.52149419 41.31231701 11.24591708 44.63274452 15 49 C19.2418919 51.82792793 23.01873743 51.78122286 28 51 C31.12291165 49.31987353 33.39164837 47.21670326 35 44 C35.11747478 42.58117119 35.17685428 41.15728586 35.20532227 39.73388672 C35.22526749 38.85312469 35.24521271 37.97236267 35.26576233 37.06491089 C35.29083107 35.63672531 35.29083107 35.63672531 35.31640625 34.1796875 C35.33718735 33.20589142 35.35796844 32.23209534 35.37937927 31.22879028 C35.44488598 28.11093353 35.50376497 24.99299097 35.5625 21.875 C35.60568415 19.76431396 35.6492984 17.65363667 35.69335938 15.54296875 C35.80056853 10.36206764 35.90183283 5.18108001 36 0 C39.3 0 42.6 0 46 0 C46.17387999 6.38617243 46.3004627 12.77094816 46.38452148 19.15893555 C46.41958407 21.32877626 46.46724935 23.49845325 46.52807617 25.66772461 C46.61362232 28.79842626 46.65283061 31.92693096 46.68359375 35.05859375 C46.71972275 36.01833603 46.75585175 36.97807831 46.79307556 37.96690369 C46.79740104 45.49574076 44.25499147 49.69908481 39 55 C32.75822532 60.44146076 25.91922426 60.45998634 18 60 C12.09944463 58.99990587 7.80425767 56.59348595 4 52 C0.05453437 45.91095806 -0.55072326 40.73710027 -0.390625 33.59375 C-0.38496521 32.6284436 -0.37930542 31.66313721 -0.37347412 30.6685791 C-0.35123963 27.61186283 -0.30106775 24.55635672 -0.25 21.5 C-0.22991828 19.4166837 -0.21167045 17.33334887 -0.1953125 15.25 C-0.15141725 10.1662066 -0.08248003 5.08330785 0 0 Z " fill="#E9EEEE" transform="translate(222,63)"/>
<path d="M0 0 C1.65 0 3.3 0 5 0 C6.44921875 1.46875 6.44921875 1.46875 7.6875 3.5 C10.73530524 7.98440094 14.37447592 10.86463296 18.73046875 14.04296875 C22.05377452 16.90867648 23.75517977 19.42521042 24.43359375 23.7890625 C24.43488281 24.72492188 24.43617187 25.66078125 24.4375 26.625 C24.45683594 27.56601563 24.47617188 28.50703125 24.49609375 29.4765625 C24 32 24 32 21.97265625 33.8359375 C21.32167969 34.22007813 20.67070313 34.60421875 20 35 C19.814375 33.80503906 19.814375 33.80503906 19.625 32.5859375 C18.13846275 24.9065714 18.13846275 24.9065714 13 19.3125 C10.63161364 17.7918883 8.69197197 16.89732399 6 16 C6.00112793 17.24612061 6.00225586 18.49224121 6.00341797 19.77612305 C5.99974177 24.40776901 5.95690545 29.03837465 5.90234375 33.66967773 C5.88419631 35.6725392 5.87661297 37.67552579 5.87988281 39.6784668 C5.88274354 42.56136632 5.84739274 45.44167799 5.8046875 48.32421875 C5.81378143 49.21711105 5.82287537 50.11000336 5.83224487 51.029953 C5.69043712 57.12108139 5.69043712 57.12108139 3.69439697 59.66201782 C-0.72582988 63.41911769 -4.16056973 65.05839461 -9.9375 64.875 C-14.13541656 64.21384806 -16.73576352 62.6929951 -20 60 C-20 59.34 -20 58.68 -20 58 C-20.66 58 -21.32 58 -22 58 C-22.83709716 51.18363739 -22.83709716 51.18363739 -20.546875 47.9453125 C-16.67768014 44.02734628 -14.20847375 42.07887406 -8.5 41.875 C-5 42 -5 42 -2 43 C-2 43.66 -2 44.32 -2 45 C-1.34 45 -0.68 45 0 45 C0 30.15 0 15.3 0 0 Z " fill="#00C9C5" transform="translate(90,61)"/>
<path d="M0 0 C11.55 0 23.1 0 35 0 C35 2.64 35 5.28 35 8 C26.42 8 17.84 8 9 8 C9 13.94 9 19.88 9 26 C16.59 26 24.18 26 32 26 C32 28.64 32 31.28 32 34 C24.41 34 16.82 34 9 34 C9 42.25 9 50.5 9 59 C6.03 59 3.06 59 0 59 C0 39.53 0 20.06 0 0 Z " fill="#F9FAFA" transform="translate(332,64)"/>
<path d="M0 0 C3.3 0 6.6 0 10 0 C10 16.83 10 33.66 10 51 C19.57 51 29.14 51 39 51 C39 53.97 39 56.94 39 60 C26.13 60 13.26 60 0 60 C0 40.2 0 20.4 0 0 Z " fill="#E7ECED" transform="translate(177,63)"/>
<path d="M0 0 C2.97 0 5.94 0 9 0 C9 19.47 9 38.94 9 59 C6.03 59 3.06 59 0 59 C0 39.53 0 20.06 0 0 Z " fill="#FAFBFB" transform="translate(377,64)"/>
<path d="M0 0 C1.43859375 -0.00773438 1.43859375 -0.00773438 2.90625 -0.015625 C5.5 0.25 5.5 0.25 8.5 2.25 C8.93359375 5.3671875 8.93359375 5.3671875 8.9375 9.125 C8.96650391 10.97738281 8.96650391 10.97738281 8.99609375 12.8671875 C8.5 16.25 8.5 16.25 6.7890625 18.66796875 C4.09574171 20.52939353 2.68356902 20.76094048 -0.5625 20.6875 C-1.41972656 20.68621094 -2.27695313 20.68492187 -3.16015625 20.68359375 C-5.5 20.25 -5.5 20.25 -7.28515625 19.1953125 C-9.16473277 16.18557261 -8.93349178 13.12226723 -8.875 9.6875 C-8.88660156 9.00236328 -8.89820313 8.31722656 -8.91015625 7.61132812 C-8.8984375 5.62109375 -8.8984375 5.62109375 -8.5 2.25 C-5.14802157 0.01534771 -3.92208754 -0.02108649 0 0 Z " fill="#02BFBB" transform="translate(226.5,148.75)"/>
<path d="M0 0 C13.125 -0.53571429 13.125 -0.53571429 16.8125 1.4375 C19.58674395 4.68732863 19.74672856 6.69485455 19.46484375 10.875 C18.79655073 13.93005379 17.54927354 15.25192671 15 17 C10.09931037 18.63356321 5.14261524 18.05529694 0 18 C0 12.06 0 6.12 0 0 Z " fill="#167073" transform="translate(138,97)"/>
<path d="M0 0 C9.72015209 -0.3513308 9.72015209 -0.3513308 14.1875 0.875 C16.82398729 3.96605406 16.47108173 6.67253385 16.37109375 10.625 C16 13 16 13 14 16 C9.36297289 17.5456757 4.87528349 17.05735628 0 17 C0 11.39 0 5.78 0 0 Z " fill="#146E71" transform="translate(138,72)"/>
<path d="M0 0 C1.45599609 0.00773438 1.45599609 0.00773438 2.94140625 0.015625 C3.90949219 0.01046875 4.87757813 0.0053125 5.875 0 C8.50390625 0.265625 8.50390625 0.265625 11.50390625 2.265625 C11.84448242 4.14501953 11.84448242 4.14501953 11.796875 6.3984375 C11.78720703 7.20410156 11.77753906 8.00976562 11.76757812 8.83984375 C11.74244141 9.68160156 11.71730469 10.52335938 11.69140625 11.390625 C11.67110352 12.66486328 11.67110352 12.66486328 11.65039062 13.96484375 C11.61498844 16.06537337 11.56118026 18.16557793 11.50390625 20.265625 C10.18390625 20.265625 8.86390625 20.265625 7.50390625 20.265625 C7.50390625 17.625625 7.50390625 14.985625 7.50390625 12.265625 C4.86390625 12.595625 2.22390625 12.925625 -0.49609375 13.265625 C-0.49609375 14.255625 -0.49609375 15.245625 -0.49609375 16.265625 C1.48390625 16.595625 3.46390625 16.925625 5.50390625 17.265625 C5.50390625 18.255625 5.50390625 19.245625 5.50390625 20.265625 C-1.85287767 20.62743405 -1.85287767 20.62743405 -4.49609375 19.140625 C-5.99296329 16.33399461 -5.9514469 14.38804657 -5.49609375 11.265625 C-4.05859375 9.390625 -4.05859375 9.390625 -1.49609375 8.265625 C1.52186995 8.03187566 4.48400749 8.09140007 7.50390625 8.265625 C7.50390625 6.615625 7.50390625 4.965625 7.50390625 3.265625 C4.86390625 3.265625 2.22390625 3.265625 -0.49609375 3.265625 C-0.49609375 4.585625 -0.49609375 5.905625 -0.49609375 7.265625 C-1.81609375 7.265625 -3.13609375 7.265625 -4.49609375 7.265625 C-4.62109375 4.890625 -4.62109375 4.890625 -4.49609375 2.265625 C-2.49609375 0.265625 -2.49609375 0.265625 0 0 Z " fill="#02BCB8" transform="translate(367.49609375,148.734375)"/>
<path d="M0 0 C1.45599609 0.00773438 1.45599609 0.00773438 2.94140625 0.015625 C3.90949219 0.01046875 4.87757813 0.0053125 5.875 0 C8.50390625 0.265625 8.50390625 0.265625 11.50390625 2.265625 C11.84448242 4.14501953 11.84448242 4.14501953 11.796875 6.3984375 C11.78720703 7.20410156 11.77753906 8.00976562 11.76757812 8.83984375 C11.74244141 9.68160156 11.71730469 10.52335938 11.69140625 11.390625 C11.67110352 12.66486328 11.67110352 12.66486328 11.65039062 13.96484375 C11.61498844 16.06537337 11.56118026 18.16557793 11.50390625 20.265625 C10.18390625 20.265625 8.86390625 20.265625 7.50390625 20.265625 C7.50390625 17.295625 7.50390625 14.325625 7.50390625 11.265625 C4.86390625 11.595625 2.22390625 11.925625 -0.49609375 12.265625 C-0.49609375 13.585625 -0.49609375 14.905625 -0.49609375 16.265625 C1.48390625 16.595625 3.46390625 16.925625 5.50390625 17.265625 C5.50390625 18.255625 5.50390625 19.245625 5.50390625 20.265625 C4.24578125 20.306875 2.98765625 20.348125 1.69140625 20.390625 C0.98371094 20.41382813 0.27601563 20.43703125 -0.453125 20.4609375 C-2.49609375 20.265625 -2.49609375 20.265625 -5.49609375 18.265625 C-5.90453298 15.55358848 -5.62946242 13.0219108 -5.49609375 10.265625 C-2.43362628 8.48152698 -0.27530102 8.03682479 3.25390625 8.140625 C4.053125 8.15867188 4.85234375 8.17671875 5.67578125 8.1953125 C6.2790625 8.21851563 6.88234375 8.24171875 7.50390625 8.265625 C7.17390625 6.945625 6.84390625 5.625625 6.50390625 4.265625 C4.19390625 4.265625 1.88390625 4.265625 -0.49609375 4.265625 C-0.82609375 5.255625 -1.15609375 6.245625 -1.49609375 7.265625 C-2.48609375 7.265625 -3.47609375 7.265625 -4.49609375 7.265625 C-4.62109375 4.890625 -4.62109375 4.890625 -4.49609375 2.265625 C-2.49609375 0.265625 -2.49609375 0.265625 0 0 Z " fill="#02C0BD" transform="translate(347.49609375,148.734375)"/>
<path d="M0 0 C0.9796875 0.00515625 1.959375 0.0103125 2.96875 0.015625 C3.9484375 0.01046875 4.928125 0.0053125 5.9375 0 C8.46875 0.265625 8.46875 0.265625 10.46875 2.265625 C10.69580078 4.14501953 10.69580078 4.14501953 10.6640625 6.3984375 C10.65761719 7.20410156 10.65117187 8.00976562 10.64453125 8.83984375 C10.62777344 9.68160156 10.61101562 10.52335938 10.59375 11.390625 C10.58472656 12.24011719 10.57570313 13.08960938 10.56640625 13.96484375 C10.54280647 16.06522384 10.50693483 18.16545944 10.46875 20.265625 C9.47875 20.265625 8.48875 20.265625 7.46875 20.265625 C7.46875 17.295625 7.46875 14.325625 7.46875 11.265625 C4.49875 11.265625 1.52875 11.265625 -1.53125 11.265625 C-1.53125 13.245625 -1.53125 15.225625 -1.53125 17.265625 C0.77875 17.265625 3.08875 17.265625 5.46875 17.265625 C5.46875 18.255625 5.46875 19.245625 5.46875 20.265625 C4.01082116 20.31962236 2.55232288 20.35841677 1.09375 20.390625 C-0.12441406 20.42542969 -0.12441406 20.42542969 -1.3671875 20.4609375 C-3.53125 20.265625 -3.53125 20.265625 -5.53125 18.265625 C-5.83203125 16.390625 -5.83203125 16.390625 -5.84375 14.265625 C-5.86050781 13.564375 -5.87726563 12.863125 -5.89453125 12.140625 C-5.77464844 11.521875 -5.65476562 10.903125 -5.53125 10.265625 C-2.32744983 8.12975822 -1.51185033 8.03430325 2.15625 8.140625 C3.36861328 8.16769531 3.36861328 8.16769531 4.60546875 8.1953125 C5.52779297 8.23011719 5.52779297 8.23011719 6.46875 8.265625 C6.46875 6.615625 6.46875 4.965625 6.46875 3.265625 C4.15875 3.595625 1.84875 3.925625 -0.53125 4.265625 C-0.86125 5.255625 -1.19125 6.245625 -1.53125 7.265625 C-2.85125 7.265625 -4.17125 7.265625 -5.53125 7.265625 C-4.45791006 0.46780538 -4.45791006 0.46780538 0 0 Z " fill="#01C4C0" transform="translate(265.53125,148.734375)"/>
<path d="M0 0 C1.45599609 0.00773438 1.45599609 0.00773438 2.94140625 0.015625 C3.90949219 0.01046875 4.87757813 0.0053125 5.875 0 C8.50390625 0.265625 8.50390625 0.265625 11.50390625 2.265625 C11.69140625 4.890625 11.69140625 4.890625 11.50390625 7.265625 C10.18390625 7.265625 8.86390625 7.265625 7.50390625 7.265625 C7.50390625 5.945625 7.50390625 4.625625 7.50390625 3.265625 C4.86390625 3.265625 2.22390625 3.265625 -0.49609375 3.265625 C-0.49609375 4.915625 -0.49609375 6.565625 -0.49609375 8.265625 C0.74140625 8.20375 1.97890625 8.141875 3.25390625 8.078125 C6.01471666 8.09281016 7.44333241 8.23836677 10.00390625 9.390625 C11.50390625 11.265625 11.50390625 11.265625 12.00390625 14.265625 C11.50390625 17.265625 11.50390625 17.265625 9.79296875 18.93359375 C7.09507669 20.50352753 5.47816484 20.63825987 2.37890625 20.578125 C1.51007813 20.57425781 0.64125 20.57039063 -0.25390625 20.56640625 C-2.49609375 20.265625 -2.49609375 20.265625 -4.49609375 18.265625 C-4.62109375 15.640625 -4.62109375 15.640625 -4.49609375 13.265625 C-3.50609375 13.265625 -2.51609375 13.265625 -1.49609375 13.265625 C-1.16609375 14.255625 -0.83609375 15.245625 -0.49609375 16.265625 C1.81390625 16.265625 4.12390625 16.265625 6.50390625 16.265625 C6.50390625 14.945625 6.50390625 13.625625 6.50390625 12.265625 C5.79363281 12.13285156 5.08335937 12.00007812 4.3515625 11.86328125 C3.43246094 11.68667969 2.51335937 11.51007813 1.56640625 11.328125 C0.64988281 11.15410156 -0.26664063 10.98007813 -1.2109375 10.80078125 C-3.49609375 10.265625 -3.49609375 10.265625 -4.49609375 9.265625 C-4.68359375 5.828125 -4.68359375 5.828125 -4.49609375 2.265625 C-2.49609375 0.265625 -2.49609375 0.265625 0 0 Z " fill="#01C4C0" transform="translate(172.49609375,148.734375)"/>
<path d="M0 0 C1.0725 0.00515625 2.145 0.0103125 3.25 0.015625 C4.85875 0.00789062 4.85875 0.00789062 6.5 0 C9.25 0.265625 9.25 0.265625 11.25 2.265625 C11.47705078 4.14501953 11.47705078 4.14501953 11.4453125 6.3984375 C11.43886719 7.20410156 11.43242187 8.00976562 11.42578125 8.83984375 C11.40902344 9.68160156 11.39226562 10.52335938 11.375 11.390625 C11.36597656 12.24011719 11.35695312 13.08960938 11.34765625 13.96484375 C11.32405647 16.06522384 11.28818483 18.16545944 11.25 20.265625 C9.93 20.265625 8.61 20.265625 7.25 20.265625 C7.25 14.655625 7.25 9.045625 7.25 3.265625 C4.94 3.595625 2.63 3.925625 0.25 4.265625 C-0.08 9.545625 -0.41 14.825625 -0.75 20.265625 C-2.07 20.265625 -3.39 20.265625 -4.75 20.265625 C-4.80379226 17.30705091 -4.84357093 14.34944779 -4.875 11.390625 C-4.89175781 10.54886719 -4.90851563 9.70710937 -4.92578125 8.83984375 C-4.93222656 8.03417969 -4.93867188 7.22851562 -4.9453125 6.3984375 C-4.96102295 5.28299561 -4.96102295 5.28299561 -4.97705078 4.14501953 C-4.57537986 0.82022084 -3.15199786 0.30445434 0 0 Z " fill="#02BDBA" transform="translate(202.75,148.734375)"/>
<path d="M0 0 C0.86882812 -0.00515625 1.73765625 -0.0103125 2.6328125 -0.015625 C4.875 0.25 4.875 0.25 6.875 2.25 C7.10205078 4.12939453 7.10205078 4.12939453 7.0703125 6.3828125 C7.06386719 7.18847656 7.05742187 7.99414062 7.05078125 8.82421875 C7.03402344 9.66597656 7.01726562 10.50773438 7 11.375 C6.99097656 12.22449219 6.98195313 13.07398438 6.97265625 13.94921875 C6.94905647 16.04959884 6.91318483 18.14983444 6.875 20.25 C5.555 20.25 4.235 20.25 2.875 20.25 C2.875 14.64 2.875 9.03 2.875 3.25 C0.235 3.25 -2.405 3.25 -5.125 3.25 C-5.125 8.86 -5.125 14.47 -5.125 20.25 C-6.445 20.25 -7.765 20.25 -9.125 20.25 C-9.125 14.31 -9.125 8.37 -9.125 2.25 C-5.34803308 0.36151654 -4.00615229 -0.02391733 0 0 Z " fill="#02BEBB" transform="translate(331.125,148.75)"/>
<path d="M0 0 C1.32 0 2.64 0 4 0 C4 5.61 4 11.22 4 17 C7.465 16.505 7.465 16.505 11 16 C11.33 10.72 11.66 5.44 12 0 C13.32 0 14.64 0 16 0 C16.10787818 2.77186988 16.18723327 5.53955537 16.25 8.3125 C16.30027344 9.49102539 16.30027344 9.49102539 16.3515625 10.69335938 C16.4499711 16.47486443 16.4499711 16.47486443 14.26953125 19.01953125 C11.80860998 20.08268312 10.11127541 20.40214493 7.4375 20.375 C6.67308594 20.38273437 5.90867187 20.39046875 5.12109375 20.3984375 C2.44963418 19.89661637 1.68668263 19.10062712 0 17 C-0.34057617 15.09887695 -0.34057617 15.09887695 -0.29296875 12.98828125 C-0.28330078 12.23095703 -0.27363281 11.47363281 -0.26367188 10.69335938 C-0.23853516 9.90767578 -0.21339844 9.12199219 -0.1875 8.3125 C-0.17396484 7.51521484 -0.16042969 6.71792969 -0.14648438 5.89648438 C-0.11117089 3.93070033 -0.05736447 1.96526418 0 0 Z " fill="#01C2BF" transform="translate(302,149)"/>
<path d="M0 0 C1.32 0 2.64 0 4 0 C4 1.65 4 3.3 4 5 C5.32 5 6.64 5 8 5 C8 5.99 8 6.98 8 8 C6.68 8 5.36 8 4 8 C4.33 12.29 4.66 16.58 5 21 C5.99 21.33 6.98 21.66 8 22 C8 22.99 8 23.98 8 25 C4.28400809 25.20086443 3.22791555 25.1519437 0 23 C-0.22137393 20.37302936 -0.28162025 17.99106036 -0.1875 15.375 C-0.17396484 14.66859375 -0.16042969 13.9621875 -0.14648438 13.234375 C-0.1111104 11.48925872 -0.05730221 9.74453392 0 8 C-0.66 8 -1.32 8 -2 8 C-2 6.68 -2 5.36 -2 4 C-1.34 4 -0.68 4 0 4 C0 2.68 0 1.36 0 0 Z " fill="#02BCB8" transform="translate(239,144)"/>
<path d="M0 0 C1.32 0 2.64 0 4 0 C4 1.65 4 3.3 4 5 C5.32 5 6.64 5 8 5 C8 5.99 8 6.98 8 8 C6.68 8 5.36 8 4 8 C4 12.62 4 17.24 4 22 C5.32 22 6.64 22 8 22 C8 22.99 8 23.98 8 25 C1.125 24.125 1.125 24.125 0 23 C-0.07313567 20.46950598 -0.09247527 17.96695163 -0.0625 15.4375 C-0.05798828 14.72658203 -0.05347656 14.01566406 -0.04882812 13.28320312 C-0.03700864 11.52209987 -0.01907263 9.76103964 0 8 C-0.66 8 -1.32 8 -2 8 C-2 7.01 -2 6.02 -2 5 C-1.34 5 -0.68 5 0 5 C0 3.35 0 1.7 0 0 Z " fill="#01C2BF" transform="translate(151,144)"/>
<path d="M0 0 C1.32 0 2.64 0 4 0 C4 1.65 4 3.3 4 5 C5.32 5 6.64 5 8 5 C8 5.99 8 6.98 8 8 C6.68 8 5.36 8 4 8 C4 12.62 4 17.24 4 22 C5.32 22 6.64 22 8 22 C8 22.99 8 23.98 8 25 C5.6568787 24.74438677 3.32156597 24.40729228 1 24 C-0.50156874 20.99686252 -0.09281204 18.20932478 -0.0625 14.875 C-0.05347656 13.59367188 -0.04445313 12.31234375 -0.03515625 10.9921875 C-0.02355469 10.00476563 -0.01195312 9.01734375 0 8 C-0.66 8 -1.32 8 -2 8 C-2 7.01 -2 6.02 -2 5 C-1.34 5 -0.68 5 0 5 C0 3.35 0 1.7 0 0 Z " fill="#01C5C1" transform="translate(291,144)"/>
<path d="M0 0 C3.5 0.125 3.5 0.125 4.5 1.125 C4.59873816 3.12299572 4.62971799 5.12457158 4.625 7.125 C4.62757813 8.218125 4.63015625 9.31125 4.6328125 10.4375 C4.5 13.125 4.5 13.125 3.5 14.125 C0 14.25 0 14.25 -3.5 14.125 C-4.5 13.125 -4.5 13.125 -4.6328125 10.4375 C-4.63023437 9.344375 -4.62765625 8.25125 -4.625 7.125 C-4.62757813 6.031875 -4.63015625 4.93875 -4.6328125 3.8125 C-4.43248143 -0.24125818 -4.18897343 0.14960619 0 0 Z " fill="#134747" transform="translate(226.5,151.875)"/>
<path d="M0 0 C1.32 0.33 2.64 0.66 4 1 C4 9.58 4 18.16 4 27 C2.68 27 1.36 27 0 27 C0 18.09 0 9.18 0 0 Z " fill="#02C1BD" transform="translate(142,142)"/>
<path d="M0 0 C2.97 0 5.94 0 9 0 C9 2.97 9 5.94 9 9 C8.34 8.67 7.68 8.34 7 8 C7 7.34 7 6.68 7 6 C4.69 6 2.38 6 0 6 C0 4.02 0 2.04 0 0 Z " fill="#114948" transform="translate(264,160)"/>
<path d="M0 0 C2.05078125 0.03255208 4.1015625 0.06510417 6.15234375 0.09765625 C6.15234375 2.73765625 6.15234375 5.37765625 6.15234375 8.09765625 C5.16234375 8.59265625 5.16234375 8.59265625 4.15234375 9.09765625 C4.15234375 8.10765625 4.15234375 7.11765625 4.15234375 6.09765625 C2.17234375 6.09765625 0.19234375 6.09765625 -1.84765625 6.09765625 C-2.22984392 4.44150968 -2.56160727 2.77308601 -2.84765625 1.09765625 C-1.84765625 0.09765625 -1.84765625 0.09765625 0 0 Z " fill="#125050" transform="translate(348.84765625,159.90234375)"/>
<path d="M0 0 C3.3 0.33 6.6 0.66 10 1 C10.38218767 2.65614657 10.71395102 4.32457024 11 6 C10 7 10 7 6.4375 7.0625 C5.303125 7.041875 4.16875 7.02125 3 7 C2.01 4.69 1.02 2.38 0 0 Z " fill="#114847" transform="translate(169,159)"/>
<path d="M0 0 C2.05078125 0.03255208 4.1015625 0.06510417 6.15234375 0.09765625 C6.15234375 2.40765625 6.15234375 4.71765625 6.15234375 7.09765625 C5.16234375 7.59265625 5.16234375 7.59265625 4.15234375 8.09765625 C4.15234375 7.10765625 4.15234375 6.11765625 4.15234375 5.09765625 C2.17234375 5.09765625 0.19234375 5.09765625 -1.84765625 5.09765625 C-2.41015625 3.16015625 -2.41015625 3.16015625 -2.84765625 1.09765625 C-1.84765625 0.09765625 -1.84765625 0.09765625 0 0 Z " fill="#124141" transform="translate(368.84765625,160.90234375)"/>
<path d="M0 0 C2.31 0 4.62 0 7 0 C7.33 1.65 7.66 3.3 8 5 C4.37 5.33 0.74 5.66 -3 6 C-3.33 5.34 -3.66 4.68 -4 4 C-3.01 4 -2.02 4 -1 4 C-0.67 2.68 -0.34 1.36 0 0 Z " fill="#124D4E" transform="translate(347,152)"/>
<path d="M0 0 C0.33 0 0.66 0 1 0 C1 5.94 1 11.88 1 18 C0.01 18 -0.98 18 -2 18 C-2.05397335 15.5622037 -2.09365616 13.12560315 -2.125 10.6875 C-2.14175781 9.99720703 -2.15851563 9.30691406 -2.17578125 8.59570312 C-2.21217794 4.82864604 -2.14378864 3.21568296 0 0 Z " fill="#00CAC6" transform="translate(213,151)"/>
<path d="M0 0 C1.97909398 -0.02686553 3.95828971 -0.04633375 5.9375 -0.0625 C7.03964844 -0.07410156 8.14179688 -0.08570313 9.27734375 -0.09765625 C12 0 12 0 13 1 C13.04063832 2.66617115 13.042721 4.33388095 13 6 C12.67 6 12.34 6 12 6 C11.67 10.62 11.34 15.24 11 20 C10.67 20 10.34 20 10 20 C10 14.39 10 8.78 10 3 C7.69 3 5.38 3 3 3 C1.0625 1.5 1.0625 1.5 0 0 Z " fill="#05A6A3" transform="translate(200,149)"/>
<path d="M0 0 C1.77049689 -0.05410687 3.54146849 -0.09284119 5.3125 -0.125 C6.29863281 -0.14820313 7.28476563 -0.17140625 8.30078125 -0.1953125 C11 0 11 0 14 2 C14.1875 4.625 14.1875 4.625 14 7 C12.68 7 11.36 7 10 7 C9.67 5.68 9.34 4.36 9 3 C7.741875 2.79375 6.48375 2.5875 5.1875 2.375 C4.12595703 2.20097656 4.12595703 2.20097656 3.04296875 2.0234375 C0.68244176 1.80422152 0.68244176 1.80422152 -2 4 C-1.34 2.68 -0.68 1.36 0 0 Z " fill="#02BAB7" transform="translate(170,149)"/>
<path d="M0 0 C2.64 0 5.28 0 8 0 C8 1.32 8 2.64 8 4 C8.99 4.33 9.98 4.66 11 5 C8.00468461 5.99843846 6.82744268 6.00732761 3.8125 5.5625 C2.554375 5.376875 1.29625 5.19125 0 5 C0 3.35 0 1.7 0 0 Z " fill="#124242" transform="translate(172,152)"/>
<path d="M0 0 C2.64 0 5.28 0 8 0 C8 1.65 8 3.3 8 5 C4.7 5.33 1.4 5.66 -2 6 C-2.33 5.34 -2.66 4.68 -3 4 C-2.01 4 -1.02 4 0 4 C0 2.68 0 1.36 0 0 Z " fill="#124343" transform="translate(367,152)"/>
<path d="M0 0 C2.31 0 4.62 0 7 0 C7 1.65 7 3.3 7 5 C3.7 5.33 0.4 5.66 -3 6 C-3.33 5.34 -3.66 4.68 -4 4 C-3.01 4 -2.02 4 -1 4 C-0.67 2.68 -0.34 1.36 0 0 Z " fill="#133E3D" transform="translate(265,152)"/>
<path d="M0 0 C0.99773437 0.02320313 1.99546875 0.04640625 3.0234375 0.0703125 C4.52777344 0.09738281 4.52777344 0.09738281 6.0625 0.125 C6.83335937 0.14820313 7.60421875 0.17140625 8.3984375 0.1953125 C5.61310321 3.31522148 3.55498109 3.73347432 -0.6015625 4.1953125 C-0.9315625 5.1853125 -1.2615625 6.1753125 -1.6015625 7.1953125 C-2.9215625 7.1953125 -4.2415625 7.1953125 -5.6015625 7.1953125 C-4.51902891 0.33926643 -4.51902891 0.33926643 0 0 Z " fill="#03B8B4" transform="translate(265.6015625,148.8046875)"/>
<path d="M0 0 C0.99 0 1.98 0 3 0 C3 3.3 3 6.6 3 10 C2.01 10 1.02 10 0 10 C0 6.7 0 3.4 0 0 Z " fill="#04AFAC" transform="translate(161,141)"/>
</svg>
