<?xml version="1.0" encoding="UTF-8"?>
<svg version="1.1" xmlns="http://www.w3.org/2000/svg" width="505" height="253">
<path d="M0 0 C166.65 0 333.3 0 505 0 C505 83.49 505 166.98 505 253 C338.35 253 171.7 253 0 253 C0 169.51 0 86.02 0 0 Z " fill="#84D1E0" transform="translate(0,0)"/>
<path d="M0 0 C5.55915208 3.53363924 8.73706532 7.8303968 11 14 C11.52451367 16.98386273 11.57484753 19.85128922 11.5 22.875 C11.48078491 24.05690918 11.48078491 24.05690918 11.46118164 25.26269531 C11.18520697 33.21273133 9.71499815 39.76835643 3.8125 45.4375 C-2.60849444 50.27035935 -10.07146786 51.99962495 -18 51 C-24.08544695 49.69813822 -28.63460867 47.56843279 -33 43 C-38.58094292 34.18139468 -39.46026518 23.74683055 -37.5390625 13.5546875 C-35.32411062 6.90983187 -31.05661249 1.74599206 -24.8125 -1.4375 C-16.69559203 -4.60241201 -7.74849498 -3.88157121 0 0 Z " fill="#0E4D70" transform="translate(236,174)"/>
<path d="M0 0 C7.1775 -0.1546875 7.1775 -0.1546875 14.5 -0.3125 C15.99337891 -0.35802002 17.48675781 -0.40354004 19.02539062 -0.45043945 C25.82185633 -0.52127405 31.00535026 -0.49286445 36.59960938 3.62426758 C39.56059868 6.53311952 40.33146215 8.73303665 40.4375 12.75 C40.36442735 18.28728266 38.57778111 20.88555172 35 25 C35.49371094 25.40992187 35.98742187 25.81984375 36.49609375 26.2421875 C37.13675781 26.78101562 37.77742188 27.31984375 38.4375 27.875 C39.07558594 28.40867187 39.71367187 28.94234375 40.37109375 29.4921875 C42.93974928 31.86988782 43.0038367 33.0370881 43.375 36.625 C43.29420445 41.55352842 41.50192502 45.52886113 38 49 C32.93815901 51.5623605 29.29790238 52.36470418 23.53515625 52.29296875 C22.29386963 52.28547607 21.05258301 52.2779834 19.77368164 52.27026367 C17.44164673 52.22929565 17.44164673 52.22929565 15.0625 52.1875 C10.091875 52.125625 5.12125 52.06375 0 52 C0 34.84 0 17.68 0 0 Z " fill="#0E4C70" transform="translate(236,28)"/>
<path d="M0 0 C4.30495015 -0.09935088 8.60928183 -0.17169268 12.91503906 -0.21972656 C14.37772252 -0.23976332 15.84032666 -0.26700104 17.30273438 -0.30175781 C19.4129601 -0.35063225 21.52212136 -0.37304659 23.6328125 -0.390625 C24.90012207 -0.41157227 26.16743164 -0.43251953 27.47314453 -0.45410156 C32.48526346 0.19123564 35.56853455 2.37767249 38.875 6.125 C40.58842058 10.50374148 40.8439615 14.37227778 40 19 C38.12473114 23.21935493 35.78976799 26.13567302 31.59765625 28.16015625 C29.40803233 28.90386738 27.26032537 29.51779726 25 30 C25.37511719 30.58265625 25.75023437 31.1653125 26.13671875 31.765625 C30.20278957 38.2795319 33.17704122 44.85957485 36 52 C32.04 52 28.08 52 24 52 C23.62488281 50.97519531 23.24976563 49.95039063 22.86328125 48.89453125 C22.34706063 47.53358599 21.83009374 46.17292363 21.3125 44.8125 C21.06822266 44.13896484 20.82394531 43.46542969 20.57226562 42.77148438 C18.8180037 38.21928571 16.91137442 35.11024954 13 32 C10.59101789 31.20335872 10.59101789 31.20335872 8.1875 31.1875 C7.39730469 31.13980469 6.60710937 31.09210938 5.79296875 31.04296875 C4.90544922 31.02169922 4.90544922 31.02169922 4 31 C3.96261719 31.59425781 3.92523438 32.18851563 3.88671875 32.80078125 C3.3576382 39.47134587 1.93377584 45.60272899 0 52 C-3.3 52 -6.6 52 -10 52 C-9.37949851 45.73465861 -8.44256064 39.64366296 -7.1875 33.4765625 C-7.01371826 32.60857025 -6.83993652 31.740578 -6.66088867 30.84628296 C-6.29626328 29.02915257 -5.9297863 27.2123928 -5.56152344 25.39599609 C-4.99747411 22.61253529 -4.43969514 19.82787132 -3.8828125 17.04296875 C-3.52640627 15.27075997 -3.16964804 13.49862194 -2.8125 11.7265625 C-2.64580811 10.89532867 -2.47911621 10.06409485 -2.30737305 9.20767212 C-1.66981489 6.0717423 -1.01302422 3.03907266 0 0 Z " fill="#227585" transform="translate(68,100)"/>
<path d="M0 0 C3.3 0 6.6 0 10 0 C12.68871868 2.99554892 14.27704471 5.22587435 16.125 8.6875 C16.58519531 9.48478516 17.04539062 10.28207031 17.51953125 11.10351562 C19.0321645 13.72472255 20.51530721 16.36286664 22 19 C24.64 23.29 27.28 27.58 30 32 C30.33 21.44 30.66 10.88 31 0 C34.3 0 37.6 0 41 0 C41 17.16 41 34.32 41 52 C30 52 30 52 27.23828125 49.5090332 C26.60277344 48.36781006 25.96726563 47.22658691 25.3125 46.05078125 C24.95784668 45.44115036 24.60319336 44.83151947 24.23779297 44.20341492 C23.11854897 42.25945748 22.05977902 40.28938619 21 38.3125 C20.26030963 37.00370489 19.5168495 35.69703277 18.76953125 34.39257812 C17.39754822 31.9857661 16.05496952 29.5697648 14.7265625 27.13793945 C13.21431952 24.38951481 11.61396891 21.68994818 10 19 C9.67 29.89 9.34 40.78 9 52 C6.03 52 3.06 52 0 52 C0 34.84 0 17.68 0 0 Z " fill="#0F4E71" transform="translate(108,172)"/>
<path d="M0 0 C1.37478516 0.01740234 1.37478516 0.01740234 2.77734375 0.03515625 C3.69644531 0.04417969 4.61554688 0.05320312 5.5625 0.0625 C6.27277344 0.07410156 6.98304688 0.08570312 7.71484375 0.09765625 C10.51384753 5.5551361 13.02112252 11.04084837 15.31640625 16.7265625 C15.63894379 17.51989487 15.96148132 18.31322723 16.29379272 19.13059998 C16.96927853 20.79466726 17.64313847 22.45939538 18.31542969 24.12475586 C19.33931044 26.65883633 20.37048802 29.18986115 21.40234375 31.72070312 C22.0616384 33.3474778 22.72050714 34.97442517 23.37890625 36.6015625 C23.8367601 37.7237191 23.8367601 37.7237191 24.30386353 38.86854553 C26.05689651 43.22851058 27.50414342 47.55622295 28.71484375 52.09765625 C25.08484375 52.09765625 21.45484375 52.09765625 17.71484375 52.09765625 C13.71484375 42.34765625 13.71484375 42.34765625 13.71484375 40.09765625 C6.45484375 40.09765625 -0.80515625 40.09765625 -8.28515625 40.09765625 C-8.94515625 43.06765625 -9.60515625 46.03765625 -10.28515625 49.09765625 C-10.61515625 50.08765625 -10.94515625 51.07765625 -11.28515625 52.09765625 C-14.91515625 52.09765625 -18.54515625 52.09765625 -22.28515625 52.09765625 C-21.46927622 48.01825609 -20.48015963 44.74192181 -18.97265625 40.91015625 C-18.56402344 39.86472656 -18.15539062 38.81929687 -17.734375 37.7421875 C-16.63123774 34.96799055 -15.52212953 32.19643185 -14.41015625 29.42578125 C-12.90483518 25.66727487 -11.42529732 21.89965245 -9.9609375 18.125 C-9.57228516 17.12404297 -9.18363281 16.12308594 -8.78320312 15.09179688 C-7.97945326 13.01952582 -7.17742404 10.94658672 -6.37695312 8.87304688 C-5.99216797 7.88369141 -5.60738281 6.89433594 -5.2109375 5.875 C-4.86458252 4.98031006 -4.51822754 4.08562012 -4.16137695 3.16381836 C-2.87170506 0.12272244 -2.87170506 0.12272244 0 0 Z " fill="#0F4E71" transform="translate(305.28515625,27.90234375)"/>
<path d="M0 0 C1.65322266 0.01740234 1.65322266 0.01740234 3.33984375 0.03515625 C4.99693359 0.04869141 4.99693359 0.04869141 6.6875 0.0625 C7.54214844 0.07410156 8.39679688 0.08570312 9.27734375 0.09765625 C10.42000915 7.02052991 11.5589617 13.94400697 12.6953125 20.86791992 C13.08247403 23.22418107 13.47049109 25.5803018 13.859375 27.9362793 C14.41760663 31.31913448 14.97277804 34.70247967 15.52734375 38.0859375 C15.70233398 39.14226883 15.87732422 40.19860016 16.05761719 41.28694153 C16.2177832 42.26773178 16.37794922 43.24852203 16.54296875 44.2590332 C16.75614746 45.55476006 16.75614746 45.55476006 16.97363281 46.87666321 C17.27734375 49.09765625 17.27734375 49.09765625 17.27734375 52.09765625 C13.97734375 52.09765625 10.67734375 52.09765625 7.27734375 52.09765625 C6.13970024 47.83149309 5.27734375 44.53279314 5.27734375 40.09765625 C-4.81128299 39.55573582 -4.81128299 39.55573582 -14.72265625 41.09765625 C-18.15610099 44.33979468 -19.55681984 47.56135687 -20.72265625 52.09765625 C-24.35265625 52.09765625 -27.98265625 52.09765625 -31.72265625 52.09765625 C-30.19185765 48.27065974 -28.62314087 44.94554909 -26.6328125 41.37109375 C-25.71072998 39.71182861 -25.71072998 39.71182861 -24.77001953 38.01904297 C-24.10860525 36.83679833 -23.44698011 35.65467165 -22.78515625 34.47265625 C-22.11045826 33.26321487 -21.43581674 32.05374198 -20.76123047 30.84423828 C-16.67277491 23.5254479 -12.54195001 16.23138143 -8.34765625 8.97265625 C-7.89011963 8.18036621 -7.43258301 7.38807617 -6.96118164 6.57177734 C-3.20524429 0.11496572 -3.20524429 0.11496572 0 0 Z " fill="#227585" transform="translate(229.72265625,99.90234375)"/>
<path d="M0 0 C12.54 0 25.08 0 38 0 C37.67 2.97 37.34 5.94 37 9 C27.76 9 18.52 9 9 9 C8.34 12.63 7.68 16.26 7 20 C15.58 20 24.16 20 33 20 C32.67 22.97 32.34 25.94 32 29 C22.76 29 13.52 29 4 29 C3.67 32.3 3.34 35.6 3 39 C2.67 40.32 2.34 41.64 2 43 C11.57 43 21.14 43 31 43 C30.67 45.97 30.34 48.94 30 52 C16.8 52 3.6 52 -10 52 C-8.87486048 41.8737443 -8.87486048 41.8737443 -8.16796875 38.35400391 C-8.01110596 37.56353668 -7.85424316 36.77306946 -7.69262695 35.95864868 C-7.44258911 34.73001602 -7.44258911 34.73001602 -7.1875 33.4765625 C-7.01371826 32.60857025 -6.83993652 31.740578 -6.66088867 30.84628296 C-6.29626328 29.02915257 -5.9297863 27.2123928 -5.56152344 25.39599609 C-4.99747411 22.61253529 -4.43969514 19.82787132 -3.8828125 17.04296875 C-3.52640627 15.27075997 -3.16964804 13.49862194 -2.8125 11.7265625 C-2.64580811 10.89532867 -2.47911621 10.06409485 -2.30737305 9.20767212 C-1.66981489 6.0717423 -1.01302422 3.03907266 0 0 Z " fill="#217484" transform="translate(120,100)"/>
<path d="M0 0 C12.54 0 25.08 0 38 0 C38 2.97 38 5.94 38 9 C28.76 9 19.52 9 10 9 C10 12.63 10 16.26 10 20 C18.58 20 27.16 20 36 20 C36 22.97 36 25.94 36 29 C27.42 29 18.84 29 10 29 C10 33.62 10 38.24 10 43 C19.57 43 29.14 43 39 43 C39 45.97 39 48.94 39 52 C26.13 52 13.26 52 0 52 C0 34.84 0 17.68 0 0 Z " fill="#0C4A6E" transform="translate(60,172)"/>
<path d="M0 0 C3.3 0 6.6 0 10 0 C10.33 7.26 10.66 14.52 11 22 C13.18625 19.669375 15.3725 17.33875 17.625 14.9375 C18.63941162 13.85843384 18.63941162 13.85843384 19.67431641 12.75756836 C20.22780762 12.16596924 20.78129883 11.57437012 21.3515625 10.96484375 C21.96854004 10.31056396 22.58551758 9.65628418 23.22119141 8.98217773 C25.01753082 7.03703602 25.01753082 7.03703602 26.54052734 4.95727539 C30.18063984 0.15352037 30.18063984 0.15352037 34.6484375 -0.68359375 C35.87820313 -0.60238281 37.10796875 -0.52117188 38.375 -0.4375 C40.24285156 -0.34275391 40.24285156 -0.34275391 42.1484375 -0.24609375 C43.08945312 -0.16488281 44.03046875 -0.08367188 45 0 C42.11889983 3.52134466 39.18825928 6.8565276 35.89453125 9.99609375 C35.34764648 10.52170898 34.80076172 11.04732422 34.23730469 11.58886719 C33.12712602 12.64855376 32.00669253 13.69760703 30.87597656 14.73535156 C29.11303234 16.37070048 29.11303234 16.37070048 27 19 C27.3130914 22.50368559 29.13630062 25.05616273 31.01953125 27.95703125 C31.62990234 28.90513672 32.24027344 29.85324219 32.86914062 30.83007812 C33.51044922 31.81427734 34.15175781 32.79847656 34.8125 33.8125 C38.68955212 39.80070026 42.54343056 45.75727886 46 52 C41.4451963 52.8123659 37.5226227 53.09560665 33 52 C29.33038231 48.16545568 27.28836055 43.72720286 25 39 C23.85384143 37.050298 22.68947463 35.11108194 21.5 33.1875 C20.66588568 31.79213322 19.83222309 30.39649557 19 29 C17.85373678 29.97866338 16.70800212 30.95794587 15.5625 31.9375 C14.92441406 32.48277344 14.28632813 33.02804688 13.62890625 33.58984375 C10.97106733 35.73501057 10.97106733 35.73501057 10.68359375 39.59765625 C10.59684854 41.08567019 10.51504043 42.57397802 10.4375 44.0625 C10.39431641 44.82111328 10.35113281 45.57972656 10.30664062 46.36132812 C10.20026367 48.24065438 10.09960066 50.12030244 10 52 C6.7 52 3.4 52 0 52 C0 34.84 0 17.68 0 0 Z " fill="#0E4C70" transform="translate(392,28)"/>
<path d="M0 0 C3.3 0 6.6 0 10 0 C10.33 7.26 10.66 14.52 11 22 C13.18625 19.669375 15.3725 17.33875 17.625 14.9375 C18.63941162 13.85843384 18.63941162 13.85843384 19.67431641 12.75756836 C20.22780762 12.16596924 20.78129883 11.57437012 21.3515625 10.96484375 C21.96854004 10.31056396 22.58551758 9.65628418 23.22119141 8.98217773 C25.01753082 7.03703602 25.01753082 7.03703602 26.54052734 4.95727539 C30.18063984 0.15352037 30.18063984 0.15352037 34.6484375 -0.68359375 C35.87820312 -0.60238281 37.10796875 -0.52117188 38.375 -0.4375 C40.24285156 -0.34275391 40.24285156 -0.34275391 42.1484375 -0.24609375 C43.08945313 -0.16488281 44.03046875 -0.08367188 45 0 C42.11889983 3.52134466 39.18825928 6.8565276 35.89453125 9.99609375 C35.34764648 10.52170898 34.80076172 11.04732422 34.23730469 11.58886719 C33.12712602 12.64855376 32.00669253 13.69760703 30.87597656 14.73535156 C29.11303234 16.37070048 29.11303234 16.37070048 27 19 C27.3130914 22.50368559 29.13630062 25.05616273 31.01953125 27.95703125 C31.62990234 28.90513672 32.24027344 29.85324219 32.86914062 30.83007812 C33.51044922 31.81427734 34.15175781 32.79847656 34.8125 33.8125 C38.68955212 39.80070026 42.54343056 45.75727886 46 52 C41.4451963 52.8123659 37.5226227 53.09560665 33 52 C29.33038231 48.16545568 27.28836055 43.72720286 25 39 C23.85384143 37.050298 22.68947463 35.11108194 21.5 33.1875 C20.66588568 31.79213322 19.83222309 30.39649557 19 29 C17.85373678 29.97866338 16.70800212 30.95794587 15.5625 31.9375 C14.92441406 32.48277344 14.28632813 33.02804688 13.62890625 33.58984375 C10.97106733 35.73501057 10.97106733 35.73501057 10.68359375 39.59765625 C10.59684854 41.08567019 10.51504043 42.57397802 10.4375 44.0625 C10.39431641 44.82111328 10.35113281 45.57972656 10.30664062 46.36132812 C10.20026367 48.24065438 10.09960066 50.12030244 10 52 C6.7 52 3.4 52 0 52 C0 34.84 0 17.68 0 0 Z " fill="#0E4C70" transform="translate(184,28)"/>
<path d="M0 0 C3.3 0 6.6 0 10 0 C10.33 7.26 10.66 14.52 11 22 C13.18625 19.669375 15.3725 17.33875 17.625 14.9375 C18.63941162 13.85843384 18.63941162 13.85843384 19.67431641 12.75756836 C20.22780762 12.16596924 20.78129883 11.57437012 21.3515625 10.96484375 C21.96854004 10.31056396 22.58551758 9.65628418 23.22119141 8.98217773 C25.01753082 7.03703602 25.01753082 7.03703602 26.54052734 4.95727539 C30.18063984 0.15352037 30.18063984 0.15352037 34.6484375 -0.68359375 C35.87820312 -0.60238281 37.10796875 -0.52117188 38.375 -0.4375 C40.24285156 -0.34275391 40.24285156 -0.34275391 42.1484375 -0.24609375 C43.08945313 -0.16488281 44.03046875 -0.08367188 45 0 C42.11889983 3.52134466 39.18825928 6.8565276 35.89453125 9.99609375 C35.34764648 10.52170898 34.80076172 11.04732422 34.23730469 11.58886719 C33.12712602 12.64855376 32.00669253 13.69760703 30.87597656 14.73535156 C29.11303234 16.37070048 29.11303234 16.37070048 27 19 C27.3130914 22.50368559 29.13630062 25.05616273 31.01953125 27.95703125 C31.62990234 28.90513672 32.24027344 29.85324219 32.86914062 30.83007812 C33.51044922 31.81427734 34.15175781 32.79847656 34.8125 33.8125 C38.68955212 39.80070026 42.54343056 45.75727886 46 52 C41.4451963 52.8123659 37.5226227 53.09560665 33 52 C29.33038231 48.16545568 27.28836055 43.72720286 25 39 C23.85384143 37.050298 22.68947463 35.11108194 21.5 33.1875 C20.66588568 31.79213322 19.83222309 30.39649557 19 29 C17.85373678 29.97866338 16.70800212 30.95794587 15.5625 31.9375 C14.92441406 32.48277344 14.28632812 33.02804688 13.62890625 33.58984375 C10.97106733 35.73501057 10.97106733 35.73501057 10.68359375 39.59765625 C10.59684854 41.08567019 10.51504043 42.57397802 10.4375 44.0625 C10.39431641 44.82111328 10.35113281 45.57972656 10.30664062 46.36132812 C10.20026367 48.24065438 10.09960066 50.12030244 10 52 C6.7 52 3.4 52 0 52 C0 34.84 0 17.68 0 0 Z " fill="#0E4C70" transform="translate(60,28)"/>
<path d="M0 0 C3.63 0 7.26 0 11 0 C13.64 5.28 16.28 10.56 19 16 C22.98670973 12.81063222 25.63811004 10.22324762 28.75 6.3125 C33 1 33 1 34 0 C36.35313555 -0.07271741 38.70833668 -0.08370868 41.0625 -0.0625 C42.35285156 -0.05347656 43.64320313 -0.04445313 44.97265625 -0.03515625 C45.97167969 -0.02355469 46.97070312 -0.01195313 48 0 C47.195625 0.928125 46.39125 1.85625 45.5625 2.8125 C42.04921213 6.90581181 38.65166289 11.08945289 35.26171875 15.28515625 C32.68431172 18.37893498 29.95129837 21.28913454 27.1171875 24.1484375 C25.75481365 25.97507622 25.75481365 25.97507622 26.28735352 28.31396484 C27.01517617 31.05720049 27.98981536 33.30656171 29.28515625 35.828125 C29.73310547 36.70984375 30.18105469 37.5915625 30.64257812 38.5 C31.11115234 39.4075 31.57972656 40.315 32.0625 41.25 C32.99250835 43.06687852 33.92098209 44.88454367 34.84765625 46.703125 C35.26023682 47.50395508 35.67281738 48.30478516 36.09790039 49.12988281 C37 51 37 51 37 52 C33.04 52 29.08 52 25 52 C23.82823482 49.87767021 22.66245215 47.75242209 21.5 45.625 C21.16613281 45.02171875 20.83226562 44.4184375 20.48828125 43.796875 C18 39.2265625 18 39.2265625 18 37 C13.65599103 40.39044602 10.08171023 44.02987737 6.515625 48.23046875 C5 50 5 50 3 52 C-0.0390625 52.1953125 -0.0390625 52.1953125 -3.625 52.125 C-5.40777344 52.09792969 -5.40777344 52.09792969 -7.2265625 52.0703125 C-8.59941406 52.03550781 -8.59941406 52.03550781 -10 52 C-7.23332417 47.62917175 -4.18007058 43.82672846 -0.625 40.0625 C0.34673119 39.01076489 1.31808772 37.95868349 2.2890625 36.90625 C3.874773 35.20629523 5.46957981 33.51459165 7.0859375 31.84375 C8.94183069 29.92708297 8.94183069 29.92708297 11 27 C10.66776461 23.33042826 9.39579241 20.45337358 7.71484375 17.20703125 C7.26689453 16.32982422 6.81894531 15.45261719 6.35742188 14.54882812 C5.88884766 13.64583984 5.42027344 12.74285156 4.9375 11.8125 C4.00554616 10.00834926 3.07698051 8.20244295 2.15234375 6.39453125 C1.73976318 5.59893799 1.32718262 4.80334473 0.90209961 3.98364258 C0 2 0 2 0 0 Z " fill="#227585" transform="translate(259,100)"/>
<path d="M0 0 C4.25761535 2.30240143 8.28123845 5.21324546 9.8203125 9.984375 C9.8203125 11.304375 9.8203125 12.624375 9.8203125 13.984375 C6.5203125 14.644375 3.2203125 15.304375 -0.1796875 15.984375 C-0.4065625 15.22125 -0.6334375 14.458125 -0.8671875 13.671875 C-2.52765839 10.27186318 -3.69130736 9.42522767 -7.1796875 7.984375 C-12.31952693 7.28210063 -12.31952693 7.28210063 -16.9921875 9.0390625 C-19.17097742 10.80932931 -20.9160312 12.45706239 -22.1796875 14.984375 C-22.33128153 17.74805082 -22.41110143 20.46969657 -22.4296875 23.234375 C-22.4503125 23.98589844 -22.4709375 24.73742187 -22.4921875 25.51171875 C-22.53233306 31.26257026 -21.4582004 35.452694 -17.4921875 39.859375 C-14.11523569 41.50221642 -10.87088419 41.53949638 -7.1796875 40.984375 C-4.563296 40.03956696 -3.44206138 39.38765337 -1.9140625 37.0390625 C-1.58921875 36.31976563 -1.264375 35.60046875 -0.9296875 34.859375 C-0.3521875 33.580625 0.2253125 32.301875 0.8203125 30.984375 C4.1203125 31.974375 7.4203125 32.964375 10.8203125 33.984375 C9.08644808 40.05290046 6.88561164 44.99583033 1.3203125 48.296875 C-5.1540303 51.41843314 -11.93912891 52.4081226 -18.87890625 50.078125 C-25.86773353 46.8187616 -30.09042704 43.2028978 -32.9921875 35.921875 C-35.58568453 27.13362506 -35.29811844 17.23797846 -31.1796875 8.984375 C-24.31789728 -1.82814292 -11.57795661 -4.96867774 0 0 Z " fill="#104E72" transform="translate(372.1796875,29.015625)"/>
<path d="M0 0 C4.25761535 2.30240143 8.28123845 5.21324546 9.8203125 9.984375 C9.8203125 11.304375 9.8203125 12.624375 9.8203125 13.984375 C6.5203125 14.644375 3.2203125 15.304375 -0.1796875 15.984375 C-0.4065625 15.22125 -0.6334375 14.458125 -0.8671875 13.671875 C-2.52765839 10.27186318 -3.69130736 9.42522767 -7.1796875 7.984375 C-12.31952693 7.28210063 -12.31952693 7.28210063 -16.9921875 9.0390625 C-19.17097742 10.80932931 -20.9160312 12.45706239 -22.1796875 14.984375 C-22.33128153 17.74805082 -22.41110143 20.46969657 -22.4296875 23.234375 C-22.4503125 23.98589844 -22.4709375 24.73742187 -22.4921875 25.51171875 C-22.53233306 31.26257026 -21.4582004 35.452694 -17.4921875 39.859375 C-14.11523569 41.50221642 -10.87088419 41.53949638 -7.1796875 40.984375 C-4.563296 40.03956696 -3.44206138 39.38765337 -1.9140625 37.0390625 C-1.58921875 36.31976563 -1.264375 35.60046875 -0.9296875 34.859375 C-0.3521875 33.580625 0.2253125 32.301875 0.8203125 30.984375 C4.1203125 31.974375 7.4203125 32.964375 10.8203125 33.984375 C9.08644808 40.05290046 6.88561164 44.99583033 1.3203125 48.296875 C-5.1540303 51.41843314 -11.93912891 52.4081226 -18.87890625 50.078125 C-25.86773353 46.8187616 -30.09042704 43.2028978 -32.9921875 35.921875 C-35.58568453 27.13362506 -35.29811844 17.23797846 -31.1796875 8.984375 C-24.31789728 -1.82814292 -11.57795661 -4.96867774 0 0 Z " fill="#104E72" transform="translate(164.1796875,29.015625)"/>
<path d="M0 0 C3.04983368 2.52700505 5.41209283 5.26168566 7.1875 8.8125 C8.34525203 24.50858085 8.34525203 24.50858085 3.1875 30.8125 C-0.73729609 34.38049644 -4.45334751 35.189015 -9.75390625 35.08203125 C-13.92021568 34.53653723 -16.51107335 32.45747096 -19.0703125 29.22265625 C-22.69270814 23.23177115 -22.79512616 16.60617398 -21.8125 9.8125 C-20.20449766 5.58160859 -17.91795197 2.79512397 -14.5625 -0.1875 C-9.61609649 -1.98619219 -4.86329709 -2.0533921 0 0 Z " fill="#81CEDE" transform="translate(229.8125,181.1875)"/>
<path d="M0 0 C4.4239927 -1.32024913 7.63071478 -1.61899867 12 0 C16.35005977 4.97713094 19.14583599 11.20559679 21.95361328 17.14233398 C22.8650674 19.16579139 22.8650674 19.16579139 25 20 C25.24492187 19.16210938 25.48984375 18.32421875 25.7421875 17.4609375 C27.161461 13.55573153 29.01857766 10.19028729 31.125 6.625 C31.49753906 5.98433594 31.87007813 5.34367188 32.25390625 4.68359375 C33.16434002 3.11951523 34.08148191 1.55934466 35 0 C38.96 0 42.92 0 47 0 C44.01508212 6.25893192 40.56323054 12.04756823 36.8125 17.875 C35.73493028 19.55941831 34.65807123 21.24429155 33.58203125 22.9296875 C33.10999268 23.66429199 32.6379541 24.39889648 32.15161133 25.15576172 C30.14338116 28.37182505 29.8292386 30.43979629 29.68359375 34.2265625 C29.64169922 35.2578125 29.59980469 36.2890625 29.55664062 37.3515625 C29.51732422 38.43179688 29.47800781 39.51203125 29.4375 40.625 C29.39431641 41.71296875 29.35113281 42.8009375 29.30664062 43.921875 C29.20035573 46.6144257 29.09965496 49.30719576 29 52 C25.37 52 21.74 52 18 52 C18.03222656 50.42992187 18.06445312 48.85984375 18.09765625 47.2421875 C18.12112892 34.42917338 17.43340167 25.61596984 9.24609375 15.59863281 C7.0568379 12.79000285 5.27052436 9.73529489 3.4375 6.6875 C2.44556641 5.08455078 2.44556641 5.08455078 1.43359375 3.44921875 C0 1 0 1 0 0 Z " fill="#115073" transform="translate(251,172)"/>
<path d="M0 0 C3.63 0 7.26 0 11 0 C9.61445793 9.67504822 7.82639717 19.23998033 5.875 28.8125 C5.59477777 30.19851228 5.31482846 31.58457976 5.03515625 32.97070312 C4.36039668 36.31455602 3.68010636 39.65721309 3 43 C11.25 43 19.5 43 28 43 C27.67 45.97 27.34 48.94 27 52 C14.79 52 2.58 52 -10 52 C-9.35382898 45.53828982 -8.64032002 39.60864274 -7.1875 33.359375 C-7.01371826 32.5886969 -6.83993652 31.8180188 -6.66088867 31.02398682 C-6.11285604 28.59801347 -5.55684362 26.1739645 -5 23.75 C-4.444683 21.31143406 -3.89108399 18.87249158 -3.33911133 16.4331665 C-2.99747294 14.9256099 -2.65368852 13.4185374 -2.30737305 11.91204834 C-1.40561401 7.95683685 -0.6218241 4.00888116 0 0 Z " fill="#227585" transform="translate(168,100)"/>
<path d="M0 0 C3.63 0 7.26 0 11 0 C11.12419787 5.69246586 11.2146204 11.38413197 11.2746582 17.07763672 C11.29970241 19.01169587 11.33374811 20.94566131 11.37719727 22.87939453 C11.4382965 25.66983231 11.46631051 28.4590121 11.48828125 31.25 C11.51408768 32.10553467 11.5398941 32.96106934 11.56648254 33.8425293 C11.56931174 39.98738667 10.09442518 44.33342035 6 49 C0.82577286 52.7677668 -3.68798967 53.70133448 -10 53 C-13.88701721 51.8494429 -17.55308301 50.34841272 -20 47 C-21.9360978 43.22970429 -22.19575727 40.20878134 -22 36 C-17.05 35.505 -17.05 35.505 -12 35 C-11.690625 36.134375 -11.38125 37.26875 -11.0625 38.4375 C-10.37075469 41.78775099 -10.37075469 41.78775099 -9 43 C-4.85723125 43.24733137 -4.85723125 43.24733137 -1 42 C-0.67 28.14 -0.34 14.28 0 0 Z " fill="#135275" transform="translate(178,172)"/>
<path d="M0 0 C3.3 0 6.6 0 10 0 C10 17.16 10 34.32 10 52 C6.7 52 3.4 52 0 52 C0 34.84 0 17.68 0 0 Z " fill="#104E72" transform="translate(112,28)"/>
<path d="M0 0 C2.77109307 -0.05392397 5.54113818 -0.09363455 8.3125 -0.125 C9.09818359 -0.14175781 9.88386719 -0.15851563 10.69335938 -0.17578125 C11.45068359 -0.18222656 12.20800781 -0.18867187 12.98828125 -0.1953125 C13.68477783 -0.20578613 14.38127441 -0.21625977 15.09887695 -0.22705078 C17 0 17 0 20 2 C20.5 4.8125 20.5 4.8125 20 8 C17.827365 10.57285724 16.02006162 12.48996919 13 14 C10.44842345 14.0716735 7.92527029 14.09308442 5.375 14.0625 C4.66859375 14.05798828 3.9621875 14.05347656 3.234375 14.04882812 C1.48954725 14.03703875 -0.255237 14.01910324 -2 14 C-1.85866501 12.22880197 -1.71176792 10.45804713 -1.5625 8.6875 C-1.48128906 7.70136719 -1.40007812 6.71523437 -1.31640625 5.69921875 C-1 3 -1 3 0 0 Z " fill="#82D0DF" transform="translate(77,109)"/>
<path d="M0 0 C2.72977064 -0.08126109 5.4571017 -0.14061663 8.1875 -0.1875 C9.34088867 -0.22520508 9.34088867 -0.22520508 10.51757812 -0.26367188 C15.1290414 -0.32304694 18.33921667 -0.14913842 22 3 C22.5625 6.5 22.5625 6.5 22 10 C20.19409607 12.11576412 18.75370021 12.91253243 15.98461914 13.23388672 C13.56594896 13.29567477 11.16827108 13.2611817 8.75 13.1875 C7.90953125 13.17396484 7.0690625 13.16042969 6.203125 13.14648438 C4.13514062 13.11123464 2.06748729 13.0574302 0 13 C0 8.71 0 4.42 0 0 Z " fill="#82CEDE" transform="translate(246,58)"/>
<path d="M0 0 C2.77109307 -0.05392397 5.54113818 -0.09363455 8.3125 -0.125 C9.09818359 -0.14175781 9.88386719 -0.15851562 10.69335938 -0.17578125 C11.45068359 -0.18222656 12.20800781 -0.18867187 12.98828125 -0.1953125 C13.68477783 -0.20578613 14.38127441 -0.21625977 15.09887695 -0.22705078 C17 0 17 0 20 2 C20.4375 5.4375 20.4375 5.4375 20 9 C17.47519435 11.85753198 15.9565251 12.00327371 12.109375 12.29296875 C10.65595991 12.27314945 9.20268833 12.23754845 7.75 12.1875 C6.63238281 12.16719727 6.63238281 12.16719727 5.4921875 12.14648438 C3.66114584 12.11127204 1.83047831 12.05746851 0 12 C0 8.04 0 4.08 0 0 Z " fill="#82CFDE" transform="translate(246,37)"/>
<path d="M0 0 C2.26169766 3.68713736 2.63948566 7.539556 3.125 11.75 C3.21136719 12.44738281 3.29773438 13.14476563 3.38671875 13.86328125 C3.59771846 15.57472332 3.79975501 17.28726629 4 19 C-0.62 19 -5.24 19 -10 19 C-8.71078784 16.39459218 -7.41874404 13.79065627 -6.125 11.1875 C-5.76019531 10.44951172 -5.39539063 9.71152344 -5.01953125 8.95117188 C-4.66503906 8.23896484 -4.31054688 7.52675781 -3.9453125 6.79296875 C-3.62062988 6.1383667 -3.29594727 5.48376465 -2.96142578 4.80932617 C-2 3 -2 3 0 0 Z " fill="#7ECBDB" transform="translate(230,112)"/>
<path d="M0 0 C0.66 0 1.32 0 2 0 C2.81289053 2.27069422 3.62532738 4.54154901 4.4375 6.8125 C4.66759766 7.45509766 4.89769531 8.09769531 5.13476562 8.75976562 C6.11417851 11.49928283 7.07995362 14.23986086 8 17 C3.38 17 -1.24 17 -6 17 C-5.18932465 14.54105116 -4.37654509 12.08283312 -3.5625 9.625 C-3.33240234 8.92632812 -3.10230469 8.22765625 -2.86523438 7.5078125 C-1.11328125 2.2265625 -1.11328125 2.2265625 0 0 Z " fill="#7CC8D8" transform="translate(307,42)"/>
<path d="M0 0 C3.3 0 6.6 0 10 0 C10 3.3 10 6.6 10 10 C6.7 10 3.4 10 0 10 C0 6.7 0 3.4 0 0 Z " fill="#115073" transform="translate(296,214)"/>
<path d="M0 0 C3.3 0 6.6 0 10 0 C10 3.3 10 6.6 10 10 C6.7 10 3.4 10 0 10 C0 6.7 0 3.4 0 0 Z " fill="#115073" transform="translate(444,70)"/>
<path d="M0 0 C2.97 0 5.94 0 9 0 C8.67 3.3 8.34 6.6 8 10 C4.7 10 1.4 10 -2 10 C-1.34 6.7 -0.68 3.4 0 0 Z " fill="#227585" transform="translate(304,142)"/>
</svg>
